<svg width="44" height="50" viewBox="0 0 44 50" fill="none" xmlns="http://www.w3.org/2000/svg">
<path d="M29.0229 23.75C28.9104 25.0687 27.8104 26.0979 26.4729 26.0979C25.0604 26.0979 23.9125 24.9521 23.9125 23.5375C23.9125 22.1229 25.0583 20.9771 26.4708 20.9771C27.8937 21.0375 29.0229 22.2062 29.0229 23.6375C29.0229 23.6771 29.0229 23.7146 29.0208 23.7542V23.7479L29.0229 23.75ZM17.3479 20.9792C15.9146 21.1062 14.8 22.3 14.8 23.7542C14.8 25.2083 15.9146 26.4021 17.3375 26.5292H17.3479C18.7708 26.4688 19.9 25.3 19.9 23.8687C19.9 23.8292 19.9 23.7917 19.8979 23.7521V23.7583C19.9 23.7167 19.9021 23.6687 19.9021 23.6187C19.9021 22.1917 18.775 21.0292 17.3625 20.975H17.3583L17.3479 20.9792ZM43.7521 5.15V50C37.4542 44.4333 39.4667 46.2771 32.1521 39.475L33.4771 44.1H5.125C2.29375 44.0917 0 41.7958 0 38.9625C0 38.9583 0 38.9542 0 38.95V5.15C0 5.14583 0 5.14167 0 5.1375C0 2.30417 2.29375 0.00833333 5.12292 0H38.625C41.4562 0.00833333 43.75 2.30417 43.75 5.1375L43.7521 5.15ZM36.6271 28.85C36.5396 23.5187 35.2188 18.5167 32.9396 14.0875L33.0271 14.275C31.1021 12.7521 28.6771 11.7854 26.0312 11.6521L26.0021 11.65L25.6521 12.05C28.0479 12.7 30.1313 13.7937 31.9062 15.2479L31.8771 15.225C28.9625 13.6229 25.4896 12.6792 21.7958 12.6792C18.6854 12.6792 15.7312 13.3479 13.0687 14.55L13.2021 14.4958C12.2771 14.9208 11.7271 15.225 11.7271 15.225C13.5687 13.7208 15.7729 12.5875 18.1854 11.975L18.3021 11.95L18.0521 11.65C15.3771 11.7854 12.9521 12.7521 11.0021 14.2937L11.0271 14.275C8.83542 18.5167 7.51458 23.5187 7.42708 28.8208V28.85C9.09167 31.1646 11.7771 32.6542 14.8083 32.6542C14.8937 32.6542 14.9792 32.6521 15.0646 32.65H15.0521C15.0521 32.65 15.9771 31.525 16.7271 30.575C14.9229 30.1104 13.4104 29.0604 12.3667 27.6458L12.3521 27.625C12.7187 27.8833 13.3271 28.2167 13.3729 28.25C15.8917 29.65 18.8979 30.4729 22.0979 30.4729C24.5792 30.4729 26.9437 29.9771 29.0979 29.0812L28.9771 29.125C30.0771 28.7042 31.0229 28.2083 31.9021 27.6187L31.85 27.6521C30.7542 29.1167 29.1896 30.1771 27.3833 30.6167L27.3292 30.6271C28.0792 31.5771 28.9792 32.6521 28.9792 32.6521C29.0479 32.6542 29.1292 32.6542 29.2104 32.6542C32.2542 32.6542 34.95 31.1667 36.6104 28.8771L36.6271 28.85Z" fill="white"/>
</svg>
