<svg width="30" height="30" viewBox="0 0 30 30" fill="none" xmlns="http://www.w3.org/2000/svg">
<g clip-path="url(#clip0_221_469)">
<path d="M15 0C6.72902 0 0 6.72902 0 15C0 23.271 6.72902 30 15 30C23.271 30 30 23.271 30 15C30 6.72902 23.271 0 15 0ZM15 28.5714C7.51664 28.5714 1.42857 22.4834 1.42857 15C1.42857 7.51664 7.51664 1.42857 15 1.42857C22.4834 1.42857 28.5714 7.51664 28.5714 15C28.5714 22.4834 22.4834 28.5714 15 28.5714Z" fill="white"/>
<path d="M14.9998 2.85693C8.30422 2.85693 2.85693 8.30422 2.85693 14.9998C2.85693 21.6954 8.30422 27.1426 14.9998 27.1426C21.6954 27.1426 27.1426 21.6954 27.1426 14.9998C27.1426 8.30422 21.6954 2.85693 14.9998 2.85693ZM14.9998 25.7141C9.09195 25.7141 4.28551 20.9076 4.28551 14.9998C4.28551 9.09195 9.09195 4.28551 14.9998 4.28551C20.9076 4.28551 25.7141 9.09195 25.7141 14.9998C25.7141 20.9076 20.9076 25.7141 14.9998 25.7141Z" fill="white"/>
<path d="M16.357 6.57129H13.6427C12.1263 6.57129 10.8569 7.76924 10.8569 9.28559V10.607C10.8569 11.0015 11.1767 11.3213 11.5712 11.3213C11.9656 11.3213 12.2854 11.0014 12.2854 10.607V9.28559C12.2854 8.55697 12.9139 7.99986 13.6426 7.99986H16.3569C17.0855 7.99986 17.6426 8.55691 17.6426 9.28559V11.4998C17.6426 12.2285 17.0498 12.8212 16.3212 12.8212C14.8049 12.8212 13.5712 14.0549 13.5712 15.5712V17.607C13.5712 18.0015 13.891 18.3212 14.2855 18.3212C14.6799 18.3212 14.9997 18.0014 14.9997 17.607V15.5712C14.9997 14.8426 15.5925 14.2498 16.3212 14.2498C17.8375 14.2498 19.0711 13.0162 19.0711 11.4998V9.28559C19.0713 7.76924 17.8733 6.57129 16.357 6.57129Z" fill="white"/>
<path d="M14.3572 19.75C13.1756 19.75 12.2144 20.7113 12.2144 21.8928C12.2144 23.0744 13.1756 24.0357 14.3572 24.0357C15.5387 24.0357 16.5 23.0744 16.5 21.8928C16.5 20.7113 15.5387 19.75 14.3572 19.75ZM14.3572 22.6072C13.9633 22.6072 13.6429 22.2867 13.6429 21.8929C13.6429 21.499 13.9634 21.1786 14.3572 21.1786C14.7511 21.1786 15.0714 21.4991 15.0714 21.8929C15.0714 22.2867 14.751 22.6072 14.3572 22.6072Z" fill="white"/>
</g>
<defs>
<clipPath id="clip0_221_469">
<rect width="30" height="30" fill="white"/>
</clipPath>
</defs>
</svg>
