<svg width="50" height="50" viewBox="0 0 50 50" fill="none" xmlns="http://www.w3.org/2000/svg">
<path d="M36.4582 13.5415H36.479M14.5832 4.1665H35.4165C41.1695 4.1665 45.8332 8.8302 45.8332 14.5832V35.4165C45.8332 41.1695 41.1695 45.8332 35.4165 45.8332H14.5832C8.8302 45.8332 4.1665 41.1695 4.1665 35.4165V14.5832C4.1665 8.8302 8.8302 4.1665 14.5832 4.1665ZM33.3332 23.6873C33.5903 25.4212 33.2941 27.192 32.4868 28.7478C31.6795 30.3036 30.4022 31.5653 28.8366 32.3533C27.2709 33.1414 25.4966 33.4157 23.7661 33.1372C22.0355 32.8587 20.4368 32.0417 19.1974 30.8023C17.958 29.5628 17.1409 27.9642 16.8625 26.2336C16.584 24.5031 16.8583 22.7288 17.6464 21.1631C18.4344 19.5975 19.6961 18.3201 21.2519 17.5128C22.8077 16.7056 24.5785 16.4094 26.3123 16.6665C28.0809 16.9288 29.7183 17.7529 30.9825 19.0171C32.2468 20.2814 33.0709 21.9187 33.3332 23.6873Z" stroke="url(#paint0_linear_256_45)" stroke-width="2" stroke-linecap="round" stroke-linejoin="round"/>
<defs>
<linearGradient id="paint0_linear_256_45" x1="24.9998" y1="4.1665" x2="24.9998" y2="45.8332" gradientUnits="userSpaceOnUse">
<stop stop-color="#FF8316"/>
<stop offset="1" stop-color="#D70DFF"/>
</linearGradient>
</defs>
</svg>
