<svg width="298" height="115" viewBox="0 0 298 115" fill="none" xmlns="http://www.w3.org/2000/svg">
<path d="M49.25 96.1L0.0625 13.1625H29.4375L51.6875 50.0375L69.1875 20.0375V61.7875L49.25 96.1ZM73.25 96.1V13.1625H100.875V96.1H73.25ZM0 96.1V20.85L25.8125 64.1625V96.1H0Z" fill="white"/>
<path d="M146.25 96.1V79.5375H166.75V29.725H146.25V13.1625H177.812L194.438 29.725V79.5375L177.812 96.1H146.25ZM114.25 96.1V13.1625H141.875V96.1H114.25Z" fill="white"/>
<path d="M205.59 74.752C205.59 74.24 205.462 73.6 205.206 72.832C204.95 72.064 204.651 71.2533 204.31 70.4C204.054 69.5467 203.755 68.8213 203.414 68.224C205.547 68.0533 208.15 67.2 211.222 65.664C214.379 64.128 217.963 62.2507 221.974 60.032C224.193 58.9227 227.435 57.088 231.702 54.528C236.054 51.8827 240.961 48.7253 246.422 45.056C251.969 41.3013 257.729 37.2053 263.702 32.768C269.675 28.3307 275.435 23.7227 280.982 18.944L286.614 23.04C278.422 29.8667 270.102 36.2667 261.654 42.24C253.291 48.128 244.929 53.5467 236.566 58.496C228.203 63.4453 219.841 67.84 211.478 71.68V71.936C211.478 71.936 211.179 72.0213 210.582 72.192C209.985 72.2773 209.302 72.448 208.534 72.704C207.851 72.96 207.169 73.3013 206.486 73.728C205.889 74.0693 205.59 74.4107 205.59 74.752ZM205.59 74.752V69.632L210.71 66.944L285.846 61.312C285.505 61.824 285.163 62.464 284.822 63.232C284.566 64 284.31 64.7253 284.054 65.408C283.883 66.0907 283.713 66.688 283.542 67.2C269.974 68.224 258.667 69.12 249.622 69.888C240.577 70.5707 233.281 71.2107 227.734 71.808C222.273 72.32 218.049 72.7467 215.062 73.088C212.161 73.344 210.07 73.6427 208.79 73.984C207.51 74.24 206.443 74.496 205.59 74.752ZM209.43 42.88C209.345 42.4533 209.174 41.856 208.918 41.088C208.747 40.2347 208.491 39.3813 208.15 38.528C207.894 37.5893 207.638 36.864 207.382 36.352C208.747 36.096 210.369 35.4133 212.246 34.304C214.123 33.1947 216.171 31.8293 218.39 30.208C219.585 29.3547 221.419 27.9467 223.894 25.984C226.369 24.0213 229.142 21.6747 232.214 18.944C235.371 16.128 238.614 13.1413 241.942 9.984C245.27 6.74134 248.427 3.41334 251.414 0L257.43 3.712C250.603 10.7947 243.563 17.408 236.31 23.552C229.142 29.6107 221.974 34.8587 214.806 39.296V39.424C214.806 39.424 214.507 39.552 213.91 39.808C213.398 39.9787 212.801 40.2347 212.118 40.576C211.435 40.9173 210.795 41.3013 210.198 41.728C209.686 42.1547 209.43 42.5387 209.43 42.88ZM209.43 42.88L209.302 38.144L213.782 35.968L266.902 32.128C266.561 32.9813 266.262 33.9627 266.006 35.072C265.75 36.1813 265.537 37.0773 265.366 37.76C255.638 38.4427 247.531 39.04 241.046 39.552C234.646 40.064 229.483 40.4907 225.558 40.832C221.633 41.1733 218.603 41.472 216.47 41.728C214.337 41.8987 212.758 42.112 211.734 42.368C210.795 42.5387 210.027 42.7093 209.43 42.88ZM290.454 47.616L297.238 50.048C291.691 62.9333 284.267 73.6 274.966 82.048C265.665 90.4107 254.657 97.152 241.942 102.272C229.313 107.392 215.147 111.488 199.446 114.56C199.275 113.963 198.977 113.237 198.55 112.384C198.123 111.616 197.697 110.805 197.27 109.952C196.843 109.184 196.417 108.501 195.99 107.904C211.521 105.344 225.473 101.675 237.846 96.896C250.219 92.1173 260.843 85.76 269.718 77.824C278.593 69.888 285.505 59.8187 290.454 47.616Z" fill="white"/>
</svg>
