<svg width="60" height="60" viewBox="0 0 60 60" fill="none" xmlns="http://www.w3.org/2000/svg">
<path d="M6.24977 42.5C4.50333 34.2582 4.50333 25.7418 6.24977 17.5C6.47924 16.663 6.92262 15.9002 7.53629 15.2865C8.14996 14.6728 8.9128 14.2295 9.74977 14C23.1584 11.7786 36.8412 11.7786 50.2498 14C51.0868 14.2295 51.8496 14.6728 52.4633 15.2865C53.0769 15.9002 53.5203 16.663 53.7498 17.5C55.4962 25.7418 55.4962 34.2582 53.7498 42.5C53.5203 43.337 53.0769 44.0998 52.4633 44.7135C51.8496 45.3272 51.0868 45.7705 50.2498 46C36.8412 48.2218 23.1584 48.2218 9.74977 46C8.9128 45.7705 8.14996 45.3272 7.53629 44.7135C6.92262 44.0998 6.47924 43.337 6.24977 42.5Z" stroke="#FF0404" stroke-width="2" stroke-linecap="round" stroke-linejoin="round"/>
<path d="M24.9998 37.5L37.4998 30L24.9998 22.5V37.5Z" stroke="#FF0404" stroke-width="2" stroke-linecap="round" stroke-linejoin="round"/>
</svg>
