<svg width="789" height="148" viewBox="0 0 789 148" fill="none" xmlns="http://www.w3.org/2000/svg">
<path d="M688.586 145.6V29L677.586 1.60004H735.186C747.186 1.60004 757.119 3.2667 764.986 6.60003C772.853 9.80004 778.719 15.2667 782.586 23C786.453 30.7334 788.386 41.2667 788.386 54.6C788.386 73 783.986 86.2667 775.186 94.4C766.386 102.533 753.053 106.6 735.186 106.6H727.586V145.6H688.586ZM727.586 78C733.986 78 738.719 76.2667 741.786 72.8C744.986 69.3334 746.586 63.1334 746.586 54.2C746.586 47.4 745.986 42.2667 744.786 38.8C743.719 35.3334 741.786 33 738.986 31.8C736.319 30.4667 732.519 29.8 727.586 29.8V78Z" fill="white"/>
<path d="M594.725 116L577.125 74V145.6H539.125V29L528.125 1.60004H575.725L603.725 61.8L631.725 1.60004H668.525V145.6H630.525V74.4L612.925 116H594.725Z" fill="white"/>
<path d="M460.709 126.2L456.909 145.6H415.109L443.909 19.6L439.309 0H499.709L531.109 145.6H489.709L485.909 126.2H460.709ZM464.709 95.2H481.709L473.309 42.8L464.709 95.2Z" fill="white"/>
<path d="M317.133 74.6C317.133 55.6667 319.333 40.8 323.733 30C328.133 19.0667 334.733 11.3333 343.533 6.80001C352.466 2.26667 363.533 0 376.733 0C380.999 0 385.866 0.266669 391.333 0.800003C396.933 1.20001 402.333 2.00001 407.533 3.20001V56H383.333L380.133 31.8C376.533 31.8 373.399 32.2667 370.733 33.2C368.199 34 366.066 35.8 364.333 38.6C362.599 41.4 361.266 45.6667 360.333 51.4C359.533 57.1333 359.133 64.8 359.133 74.4C359.133 84.8 360.266 93 362.533 99C364.799 104.867 368.199 109.067 372.733 111.6C377.399 114 383.333 115.2 390.533 115.2C393.733 115.2 396.799 115 399.733 114.6C402.666 114.2 405.799 113.733 409.133 113.2V144.8C405.266 145.733 400.599 146.4 395.133 146.8C389.666 147.333 384.799 147.6 380.533 147.6C357.733 147.6 341.466 141.467 331.733 129.2C321.999 116.933 317.133 98.7333 317.133 74.6Z" fill="white"/>
<path d="M248.092 1.60004L265.092 47L279.492 1.60004H317.492L291.092 76.4L317.492 145.6H277.492L262.092 102.8L246.092 145.6H208.292L236.292 74.4L208.092 1.60004H248.092Z" fill="white"/>
<path d="M158.461 1.60004H197.461V145.6H158.461V1.60004Z" fill="white"/>
<path d="M66.6 116L49 74V145.6H11V29L0 1.60004H47.6L75.6 61.8L103.6 1.60004H140.4V145.6H102.4V74.4L84.8 116H66.6Z" fill="white"/>
</svg>
